<svg width="79" height="70" viewBox="0 0 79 70" fill="none" xmlns="http://www.w3.org/2000/svg">
<path d="M72.4167 4.375H6.58333C2.94878 4.375 0 7.31445 0 10.9375V59.0625C0 62.6855 2.94878 65.625 6.58333 65.625H72.4167C76.0512 65.625 79 62.6855 79 59.0625V10.9375C79 7.31445 76.0512 4.375 72.4167 4.375ZM72.4167 59.0625H6.58333V10.9375H72.4167V59.0625ZM28.5278 35C33.3693 35 37.3056 31.0762 37.3056 26.25C37.3056 21.4238 33.3693 17.5 28.5278 17.5C23.6863 17.5 19.75 21.4238 19.75 26.25C19.75 31.0762 23.6863 35 28.5278 35ZM16.2389 52.5H40.8167C42.5174 52.5 43.8889 51.3242 43.8889 49.875V47.25C43.8889 42.9023 39.7606 39.375 34.6722 39.375C33.191 39.375 32.1075 40.4688 28.5278 40.4688C24.8384 40.4688 23.9469 39.375 22.3833 39.375C17.295 39.375 13.1667 42.9023 13.1667 47.25V49.875C13.1667 51.3242 14.5382 52.5 16.2389 52.5V52.5ZM49.375 43.75H64.7361C65.3396 43.75 65.8333 43.2578 65.8333 42.6562V40.4688C65.8333 39.8672 65.3396 39.375 64.7361 39.375H49.375C48.7715 39.375 48.2778 39.8672 48.2778 40.4688V42.6562C48.2778 43.2578 48.7715 43.75 49.375 43.75ZM49.375 35H64.7361C65.3396 35 65.8333 34.5078 65.8333 33.9062V31.7188C65.8333 31.1172 65.3396 30.625 64.7361 30.625H49.375C48.7715 30.625 48.2778 31.1172 48.2778 31.7188V33.9062C48.2778 34.5078 48.7715 35 49.375 35ZM49.375 26.25H64.7361C65.3396 26.25 65.8333 25.7578 65.8333 25.1562V22.9688C65.8333 22.3672 65.3396 21.875 64.7361 21.875H49.375C48.7715 21.875 48.2778 22.3672 48.2778 22.9688V25.1562C48.2778 25.7578 48.7715 26.25 49.375 26.25Z" fill="white"/>
</svg>
