<svg width="60" height="60" viewBox="0 0 60 60" fill="none" xmlns="http://www.w3.org/2000/svg">
<g clip-path="url(#clip0_66_28)">
<path d="M22.7261 49.7039C22.4188 49.0102 21.8834 48.9398 21.6667 48.9398C21.45 48.9398 20.9146 49.009 20.6229 49.6652L19.824 51.4629C19.1604 52.9605 17.2167 52.7953 16.7531 51.218L15 45.3035L13.8948 49.0395C13.2813 51.109 11.5636 52.5 9.62397 52.5H8.33334C7.41251 52.5 6.66667 51.6609 6.66667 50.625C6.66667 49.5891 7.41251 48.75 8.33334 48.75H9.62397C10.1271 48.75 10.5729 48.3891 10.7323 47.8523L12.6271 41.4492C12.9708 40.2996 13.9229 39.5262 15 39.5262C16.0771 39.5262 17.0292 40.2984 17.3719 41.4492L18.8177 46.3289C20.875 44.4316 24.449 45.1922 25.6927 47.9883C25.8896 48.4312 26.2646 48.6855 26.6677 48.7219V39.0984L40.0011 24.2051V18.75H25.8334C24.4584 18.75 23.3334 17.4844 23.3334 15.9375V0H2.5C1.11458 0 0 1.25391 0 2.8125V57.1875C0 58.7461 1.11458 60 2.5 60H37.5C38.8854 60 40 58.7461 40 57.1875V52.5L26.6667 52.4871C24.9875 52.4508 23.4813 51.3996 22.7261 49.7039V49.7039ZM40 14.2852C40 13.5469 39.7396 12.832 39.2709 12.3047L29.0729 0.820312C28.6042 0.292969 27.9688 0 27.3021 0H26.6667V15H40V14.2852ZM30 40.6594V48.75H37.1865L54.0282 29.6742L46.9573 21.7195L30 40.6594V40.6594ZM59.223 19.609L55.9032 15.8742C54.8678 14.7094 53.1875 14.7094 52.1521 15.8742L49.3136 19.0676L56.3844 27.0223L59.223 23.8289C60.2594 22.6641 60.2594 20.7738 59.223 19.609Z" fill="#EDE9EA"/>
</g>
<defs>
<clipPath id="clip0_66_28">
<rect width="60" height="60" fill="white"/>
</clipPath>
</defs>
</svg>
