<svg width="98" height="87" viewBox="0 0 98 87" fill="none" xmlns="http://www.w3.org/2000/svg">
<g clip-path="url(#clip0_67_38)">
<path d="M47.7018 25.1926L16.3333 50.9952V78.8438C16.3333 79.5648 16.6201 80.2563 17.1306 80.7662C17.6412 81.2761 18.3336 81.5625 19.0555 81.5625L38.1213 81.5132C38.8409 81.5096 39.5298 81.2216 40.0374 80.7121C40.545 80.2027 40.8299 79.5132 40.8299 78.7945V62.5312C40.8299 61.8102 41.1167 61.1187 41.6272 60.6088C42.1377 60.0989 42.8302 59.8125 43.5521 59.8125H54.441C55.163 59.8125 55.8554 60.0989 56.3659 60.6088C56.8764 61.1187 57.1632 61.8102 57.1632 62.5312V78.7826C57.1621 79.1403 57.2317 79.4948 57.368 79.8256C57.5043 80.1564 57.7047 80.4572 57.9575 80.7105C58.2104 80.9639 58.5109 81.1649 58.8417 81.3021C59.1726 81.4392 59.5273 81.5098 59.8855 81.5098L78.9444 81.5625C79.6664 81.5625 80.3588 81.2761 80.8693 80.7662C81.3798 80.2563 81.6666 79.5648 81.6666 78.8438V50.9766L50.3049 25.1926C49.9362 24.8958 49.4769 24.7339 49.0034 24.7339C48.5298 24.7339 48.0705 24.8958 47.7018 25.1926V25.1926ZM97.2514 42.7302L83.0277 31.0209V7.48505C83.0277 6.94425 82.8126 6.42561 82.4298 6.04321C82.0469 5.66081 81.5276 5.44598 80.9861 5.44598H71.4583C70.9168 5.44598 70.3975 5.66081 70.0146 6.04321C69.6317 6.42561 69.4166 6.94425 69.4166 7.48505V19.8231L54.1841 7.30663C52.7223 6.10525 50.888 5.44839 48.9949 5.44839C47.1018 5.44839 45.2674 6.10525 43.8056 7.30663L0.738389 42.7302C0.531649 42.9009 0.360605 43.1106 0.235028 43.3473C0.109452 43.584 0.0318059 43.8431 0.00652561 44.1098C-0.0187547 44.3764 0.00882674 44.6455 0.0876939 44.9015C0.166561 45.1576 0.295168 45.3956 0.466167 45.6019L4.80471 50.8695C4.97524 51.0766 5.185 51.2481 5.42197 51.3741C5.65894 51.5001 5.91847 51.5783 6.18571 51.604C6.45295 51.6297 6.72264 51.6025 6.97935 51.524C7.23607 51.4455 7.47475 51.3172 7.68176 51.1465L47.7018 18.2258C48.0705 17.929 48.5298 17.7671 49.0034 17.7671C49.4769 17.7671 49.9362 17.929 50.3049 18.2258L90.3267 51.1465C90.5334 51.3173 90.7717 51.4457 91.028 51.5245C91.2844 51.6032 91.5538 51.6308 91.8208 51.6055C92.0878 51.5803 92.3472 51.5027 92.5842 51.3773C92.8212 51.2519 93.0312 51.0811 93.2021 50.8746L97.5406 45.607C97.7114 45.3995 97.8395 45.1602 97.9174 44.9031C97.9954 44.6459 98.0216 44.3759 97.9948 44.1086C97.9679 43.8413 97.8884 43.5819 97.7608 43.3453C97.6332 43.1088 97.4601 42.8998 97.2514 42.7302V42.7302Z" fill="white"/>
</g>
<defs>
<clipPath id="clip0_67_38">
<rect width="98" height="87" fill="white"/>
</clipPath>
</defs>
</svg>
