<svg width="60" height="45" viewBox="0 0 60 45" fill="none" xmlns="http://www.w3.org/2000/svg">
<path d="M0 36.5625C0 35.0068 1.6793 33.75 3.75 33.75H10.1555C11.6016 31.2627 14.9063 29.5312 18.75 29.5312C22.5937 29.5312 25.793 31.2627 27.3398 33.75H56.25C58.3242 33.75 60 35.0068 60 36.5625C60 38.1182 58.3242 39.375 56.25 39.375H27.3398C25.793 41.8623 22.5937 43.5938 18.75 43.5938C14.9063 43.5938 11.6016 41.8623 10.1555 39.375H3.75C1.6793 39.375 0 38.1182 0 36.5625ZM22.5 36.5625C22.5 35.0068 20.8242 33.75 18.75 33.75C16.6758 33.75 15 35.0068 15 36.5625C15 38.1182 16.6758 39.375 18.75 39.375C20.8242 39.375 22.5 38.1182 22.5 36.5625ZM41.25 15.4688C45.0937 15.4688 48.293 17.2002 49.8398 19.6875H56.25C58.3242 19.6875 60 20.9443 60 22.5C60 24.0557 58.3242 25.3125 56.25 25.3125H49.8398C48.293 27.7998 45.0937 29.5312 41.25 29.5312C37.4063 29.5312 34.1016 27.7998 32.6602 25.3125H3.75C1.6793 25.3125 0 24.0557 0 22.5C0 20.9443 1.6793 19.6875 3.75 19.6875H32.6602C34.1016 17.2002 37.4063 15.4688 41.25 15.4688ZM45 22.5C45 20.9443 43.3242 19.6875 41.25 19.6875C39.1758 19.6875 37.5 20.9443 37.5 22.5C37.5 24.0557 39.1758 25.3125 41.25 25.3125C43.3242 25.3125 45 24.0557 45 22.5ZM56.25 5.625C58.3242 5.625 60 6.88447 60 8.4375C60 9.99316 58.3242 11.25 56.25 11.25H31.0898C29.543 13.7373 26.3437 15.4688 22.5 15.4688C18.6563 15.4688 15.3516 13.7373 13.9102 11.25H3.75C1.6793 11.25 0 9.99316 0 8.4375C0 6.88447 1.6793 5.625 3.75 5.625H13.9102C15.3516 3.14209 18.6563 1.40625 22.5 1.40625C26.3437 1.40625 29.543 3.14209 31.0898 5.625H56.25ZM18.75 8.4375C18.75 9.99316 20.4258 11.25 22.5 11.25C24.5742 11.25 26.25 9.99316 26.25 8.4375C26.25 6.88447 24.5742 5.625 22.5 5.625C20.4258 5.625 18.75 6.88447 18.75 8.4375Z" fill="white"/>
</svg>
